<?xml version="1.0" encoding="utf-8"?>
<!-- Generator: Adobe Illustrator 16.0.0, SVG Export Plug-In . SVG Version: 6.00 Build 0)  -->
<!DOCTYPE svg PUBLIC "-//W3C//DTD SVG 1.1//EN" "http://www.w3.org/Graphics/SVG/1.1/DTD/svg11.dtd">
<svg version="1.1" id="Layer_1" xmlns="http://www.w3.org/2000/svg" xmlns:xlink="http://www.w3.org/1999/xlink" x="0px" y="0px"
	 width="38px" height="38px" viewBox="0 0 38 38" enable-background="new 0 0 38 38" xml:space="preserve">
<g>
	<g>
		<circle fill="none" stroke="#FFFFFF" stroke-width="2" stroke-miterlimit="10" cx="19" cy="19" r="18"/>
	</g>
	<g>
		<path fill="#FFFFFF" d="M25.776,6.459H12.216c-0.026,0-0.05,0.013-0.076,0.015l-0.038-0.015c-0.603,0-1.089,0.487-1.089,1.088
			v20.749c0,0.602,0.486,1.088,1.089,1.088l10.954,4.354c0.601,0,1.089-0.487,1.089-1.088v-5.882h1.632
			c0.532,0,0.964-0.432,0.964-0.964V7.423C26.74,6.891,26.309,6.459,25.776,6.459z M13.013,27.595V8.973l9.132,3.629v18.622
			L13.013,27.595z"/>
		<circle fill="#FFFFFF" cx="19.536" cy="20.705" r="1.199"/>
	</g>
</g>
</svg>
