<?xml version="1.0" encoding="utf-8"?>
<!-- Generator: Adobe Illustrator 16.0.0, SVG Export Plug-In . SVG Version: 6.00 Build 0)  -->
<!DOCTYPE svg PUBLIC "-//W3C//DTD SVG 1.1//EN" "http://www.w3.org/Graphics/SVG/1.1/DTD/svg11.dtd">
<svg version="1.1" id="Layer_1" xmlns="http://www.w3.org/2000/svg" xmlns:xlink="http://www.w3.org/1999/xlink" x="0px" y="0px"
	 width="53.817px" height="45.977px" viewBox="0 0 53.817 45.977" enable-background="new 0 0 53.817 45.977" xml:space="preserve">
<path fill="#FFFFFF" d="M43.581,22.156L38.496,1.039c-0.14-0.582-0.646-1.003-1.243-1.036c-0.6-0.034-1.146,0.331-1.35,0.894
	c-0.102,0.281-2.572,6.873-9.603,4.593c-0.711-0.231-1.477,0.159-1.708,0.871c-0.23,0.712,0.159,1.477,0.871,1.708
	C31.198,9.929,34.73,7.297,36.637,4.9l3.987,16.563H17.45l1.588-4.916l3.821,0.153c0.019,0,0.037,0.002,0.055,0.002
	c0.724,0,1.324-0.572,1.354-1.302c0.03-0.748-0.553-1.379-1.301-1.409l-10.393-0.418c-0.743-0.035-1.379,0.552-1.409,1.3
	s0.552,1.379,1.302,1.409l3.759,0.151l-1.885,5.83c-0.765-0.154-1.557-0.236-2.366-0.236C5.373,22.028,0,27.4,0,34.002
	c0,6.603,5.373,11.974,11.976,11.974c6.602,0,11.973-5.371,11.973-11.974c0-4.066-2.037-7.663-5.144-9.827h16.209
	c-3.107,2.165-5.146,5.761-5.146,9.827c0,6.603,5.371,11.974,11.975,11.974c6.603,0,11.975-5.371,11.975-11.974
	C53.817,27.99,49.361,23,43.581,22.156z M21.237,34.002c0,5.108-4.155,9.263-9.262,9.263c-5.108,0-9.264-4.155-9.264-9.263
	s4.155-9.263,9.264-9.263c0.52,0,1.029,0.045,1.526,0.128l-2.816,8.718c-0.229,0.712,0.161,1.476,0.874,1.707
	c0.138,0.045,0.277,0.066,0.416,0.066c0.571,0,1.104-0.366,1.289-0.939l2.815-8.716C19.134,27.219,21.237,30.369,21.237,34.002z
	 M41.843,43.266c-5.108,0-9.264-4.155-9.264-9.263c0-3.083,1.517-5.817,3.839-7.502l4.726,9.035
	c0.242,0.462,0.716,0.727,1.202,0.727c0.212,0,0.427-0.05,0.628-0.154c0.664-0.348,0.92-1.167,0.573-1.83l-4.725-9.031
	c0.948-0.327,1.963-0.508,3.021-0.508c5.107,0,9.263,4.155,9.263,9.263S46.95,43.266,41.843,43.266z"/>
</svg>
