<?xml version="1.0" encoding="utf-8"?>
<!-- Generator: Adobe Illustrator 16.0.0, SVG Export Plug-In . SVG Version: 6.00 Build 0)  -->
<!DOCTYPE svg PUBLIC "-//W3C//DTD SVG 1.1//EN" "http://www.w3.org/Graphics/SVG/1.1/DTD/svg11.dtd">
<svg version="1.1" id="Layer_1" xmlns="http://www.w3.org/2000/svg" xmlns:xlink="http://www.w3.org/1999/xlink" x="0px" y="0px"
	 width="38px" height="38px" viewBox="0 0 38 38" enable-background="new 0 0 38 38" xml:space="preserve">
<g>
	<path fill="none" d="M19,2C9.626,2,2,9.626,2,19s7.626,17,17,17s17-7.626,17-17S28.374,2,19,2z M28.988,27.833c0,0.552-0.447,1-1,1
		H10.012c-0.551,0-1-0.448-1-1v-15.12c0-0.552,0.449-1,1-1h1.395V9.167c0-1.381,1.119-2.5,2.5-2.5s2.5,1.119,2.5,2.5v2.545h5.25
		V9.167c0-1.381,1.119-2.5,2.5-2.5s2.5,1.119,2.5,2.5v2.545h1.332c0.553,0,1,0.448,1,1V27.833z"/>
	<path fill="none" d="M25.521,16.008v2.303h-2.707v-2.291c-0.694-0.444-1.158-1.218-1.158-2.104v-0.205h-5.25v0.205
		c0,0.911-0.492,1.701-1.221,2.137v2.257h-2.707v-2.346c-0.647-0.452-1.072-1.199-1.072-2.048v-0.205h-0.395v13.12h15.977v-13.12
		h-0.332v0.205C26.656,14.794,26.204,15.562,25.521,16.008z M15.186,25.274h-2.707v-2.707h2.707V25.274z M15.186,21.75h-2.707
		v-2.707h2.707V21.75z M18.631,25.274h-2.707v-2.707h2.707V25.274z M18.631,21.75h-2.707v-2.707h2.707V21.75z M18.631,18.312h-2.707
		v-2.707h2.707V18.312z M22.076,25.274h-2.707v-2.707h2.707V25.274z M22.076,21.75h-2.707v-2.707h2.707V21.75z M22.076,18.312
		h-2.707v-2.707h2.707V18.312z M25.521,25.274h-2.707v-2.707h2.707V25.274z M25.521,21.75h-2.707v-2.707h2.707V21.75z"/>
	<path fill="#FFFFFF" d="M19,0C8.523,0,0,8.523,0,19s8.523,19,19,19s19-8.523,19-19S29.477,0,19,0z M19,36C9.626,36,2,28.374,2,19
		S9.626,2,19,2s17,7.626,17,17S28.374,36,19,36z"/>
	<path fill="#FFFFFF" d="M27.988,11.713h-1.332v2h0.332v13.12H11.012v-13.12h0.395v-2h-1.395c-0.551,0-1,0.448-1,1v15.12
		c0,0.552,0.449,1,1,1h17.977c0.553,0,1-0.448,1-1v-15.12C28.988,12.161,28.541,11.713,27.988,11.713z"/>
	<rect x="16.406" y="11.713" fill="#FFFFFF" width="5.25" height="2"/>
	<path fill="#FFFFFF" d="M12.906,13.917c0,0.552,0.447,1,1,1s1-0.448,1-1v-3.75c0-0.552-0.447-1-1-1s-1,0.448-1,1V13.917z"/>
	<path fill="#FFFFFF" d="M23.156,13.917c0,0.552,0.447,1,1,1s1-0.448,1-1v-3.75c0-0.552-0.447-1-1-1s-1,0.448-1,1V13.917z"/>
	<rect x="12.479" y="19.042" fill="#FFFFFF" width="2.707" height="2.707"/>
	<rect x="15.924" y="19.042" fill="#FFFFFF" width="2.707" height="2.707"/>
	<rect x="19.369" y="19.042" fill="#FFFFFF" width="2.707" height="2.707"/>
	<rect x="22.814" y="19.042" fill="#FFFFFF" width="2.707" height="2.707"/>
	<polygon fill="#FFFFFF" points="15.186,18.312 15.186,16.055 15.186,15.604 12.479,15.604 12.479,15.966 12.479,18.312 	"/>
	<rect x="15.924" y="15.604" fill="#FFFFFF" width="2.707" height="2.707"/>
	<rect x="19.369" y="15.604" fill="#FFFFFF" width="2.707" height="2.707"/>
	<polygon fill="#FFFFFF" points="25.521,18.312 25.521,16.008 25.521,15.604 22.814,15.604 22.814,16.021 22.814,18.312 	"/>
	<rect x="12.479" y="22.567" fill="#FFFFFF" width="2.707" height="2.707"/>
	<rect x="15.924" y="22.567" fill="#FFFFFF" width="2.707" height="2.707"/>
	<rect x="19.369" y="22.567" fill="#FFFFFF" width="2.707" height="2.707"/>
	<rect x="22.814" y="22.567" fill="#FFFFFF" width="2.707" height="2.707"/>
</g>
</svg>
