<?xml version="1.0" encoding="utf-8"?>
<!-- Generator: Adobe Illustrator 16.0.0, SVG Export Plug-In . SVG Version: 6.00 Build 0)  -->
<!DOCTYPE svg PUBLIC "-//W3C//DTD SVG 1.1//EN" "http://www.w3.org/Graphics/SVG/1.1/DTD/svg11.dtd">
<svg version="1.1" id="Layer_1" xmlns="http://www.w3.org/2000/svg" xmlns:xlink="http://www.w3.org/1999/xlink" x="0px" y="0px"
	 width="28.048px" height="22.543px" viewBox="0 0 28.048 22.543" enable-background="new 0 0 28.048 22.543" xml:space="preserve">
<path fill="#FFFFFF" d="M17.193,4.868c0.252-0.271,0.566-0.487,0.946-0.654c0.381-0.167,0.815-0.287,1.306-0.364
	c0.488-0.075,0.996-0.114,1.522-0.114c0.913,0,1.823,0.083,2.73,0.25c0.907,0.166,1.694,0.367,2.362,0.602
	c0.346-0.512,0.692-1.052,1.041-1.619c0.348-0.567,0.663-1.128,0.946-1.681c-0.892-0.388-1.954-0.699-3.189-0.935S22.342,0,21.014,0
	c-1.121,0-2.224,0.101-3.308,0.301c-1.084,0.201-2.071,0.526-2.96,0.976c-0.89,0.449-1.65,1.045-2.282,1.785
	s-1.043,1.65-1.231,2.729c-0.205,1.093-0.184,2.045,0.066,2.854c0.248,0.809,0.652,1.498,1.211,2.065
	c0.559,0.567,1.244,1.03,2.058,1.39c0.813,0.361,1.688,0.638,2.625,0.831c0.616,0.124,1.212,0.249,1.788,0.374
	c0.574,0.125,1.073,0.291,1.496,0.498c0.423,0.208,0.741,0.485,0.955,0.831c0.214,0.346,0.273,0.81,0.18,1.391
	c-0.083,0.513-0.268,0.944-0.554,1.297c-0.285,0.354-0.644,0.637-1.072,0.852c-0.429,0.215-0.914,0.371-1.456,0.467
	c-0.516,0.092-1.586,0.096-1.586,0.096C6.25,18.239,1.203,10.158,0.433,1.007c-1.647,9.392,1.485,16.636,8.161,19.827
	c0.407,0.24,0.875,0.461,1.42,0.66c0.588,0.214,1.229,0.401,1.922,0.56c0.471,0.108,0.968,0.193,1.478,0.265
	c1.05,0.173,3.29,0.243,3.281,0.218c1.119-0.012,2.234-0.12,3.342-0.328c1.179-0.221,2.255-0.588,3.23-1.101
	c0.976-0.512,1.804-1.183,2.485-2.013c0.681-0.83,1.133-1.854,1.359-3.072c0.197-1.135,0.187-2.107-0.035-2.917
	c-0.223-0.81-0.609-1.495-1.162-2.055c-0.553-0.56-1.239-1.021-2.06-1.38c-0.82-0.36-1.716-0.658-2.688-0.893
	c-0.626-0.152-1.227-0.291-1.802-0.415c-0.574-0.125-1.07-0.284-1.488-0.478c-0.419-0.193-0.738-0.446-0.957-0.757
	c-0.22-0.312-0.285-0.737-0.197-1.277C16.785,5.466,16.942,5.138,17.193,4.868z"/>
</svg>
