<?xml version="1.0" encoding="utf-8"?>
<!-- Generator: Adobe Illustrator 16.0.0, SVG Export Plug-In . SVG Version: 6.00 Build 0)  -->
<!DOCTYPE svg PUBLIC "-//W3C//DTD SVG 1.1//EN" "http://www.w3.org/Graphics/SVG/1.1/DTD/svg11.dtd">
<svg version="1.1" id="Layer_1" xmlns="http://www.w3.org/2000/svg" xmlns:xlink="http://www.w3.org/1999/xlink" x="0px" y="0px"
	 width="36.202px" height="67.668px" viewBox="-148.752 604.916 36.202 67.668"
	 enable-background="new -148.752 604.916 36.202 67.668" xml:space="preserve">
<g>
	<path fill="#00AAA0" d="M-141.276,668.414c0.035-0.002,0.041-0.014,0.027-0.018L-141.276,668.414z"/>
	<path fill="#00AAA0" d="M-125.104,622.857l0.168-4.414c0.075,0.057,0.147,0.102,0.224,0.17c0.374,0.307,0.785,0.744,1.21,1.266
		c0.852,1.049,1.736,2.482,2.558,4.119c0.826,1.633,1.604,3.461,2.312,5.326c1.419,3.73,2.557,7.604,3.335,10.525
		c0.778,2.924,1.201,4.889,1.201,4.889c0.085,0.396,0.467,0.668,0.874,0.609c0.429-0.061,0.725-0.457,0.663-0.885
		c0,0-0.29-2.031-0.873-5.043c-0.581-3.01-1.458-7.008-2.653-10.963c-1.202-3.949-2.693-7.869-4.641-10.652
		c-0.489-0.691-0.994-1.318-1.534-1.84c-0.537-0.537-1.062-0.934-1.637-1.273c-0.315-0.168-0.605-0.307-0.859-0.42
		c-0.21-0.082-0.316-0.105-0.439-0.15c-0.227-0.074-0.348-0.111-0.348-0.111c-0.04-0.014-0.086-0.025-0.127-0.037
		c-0.003-0.002-0.005-0.002-0.008-0.002c-0.074-0.064-0.146-0.133-0.229-0.188c1.967-0.484,3.432-2.246,3.432-4.363
		c0-2.486-2.018-4.504-4.506-4.504c-2.487,0-4.504,2.018-4.504,4.504c0,1.967,1.268,3.621,3.023,4.236
		c-0.122,0.064-0.236,0.141-0.345,0.227c-0.745,0.068-1.411,0.572-1.647,1.332c0,0-0.148,0.479-0.409,1.318
		c-0.131,0.418-0.288,0.926-0.471,1.51s-0.441,1.146-0.692,1.816c-0.252,0.658-0.526,1.377-0.906,2.121
		c-0.372,0.742-0.697,1.562-1.166,2.342c-0.458,0.781-0.867,1.635-1.408,2.424c-0.521,0.803-1.025,1.639-1.617,2.412
		c-1.113,1.605-2.388,3.094-3.617,4.457c-1.252,1.348-2.483,2.551-3.6,3.514c-1.102,0.98-2.082,1.723-2.769,2.23
		c-0.348,0.244-0.621,0.438-0.808,0.566c-0.182,0.121-0.278,0.188-0.278,0.188l-0.027,0.018c-0.33,0.221-0.446,0.658-0.255,1.018
		c0.204,0.381,0.678,0.523,1.058,0.32c0,0,0.479-0.256,1.238-0.73c0.758-0.484,1.834-1.188,3.05-2.123
		c1.232-0.922,2.602-2.082,4.008-3.396c1.385-1.334,2.833-2.805,4.128-4.412c0.683-0.775,1.279-1.621,1.892-2.436
		c0.634-0.801,1.136-1.674,1.682-2.479c0.559-0.801,0.972-1.648,1.427-2.42c0.055-0.092,0.098-0.184,0.151-0.275
		c-0.021,2.172-0.078,4.324-0.021,6.539c0.043,1.844,0.051,3.688,0.11,5.527c-2.293,5.5-4.563,11.021-6.81,16.564l-3.393,8.777
		l-2.582,7.367c-0.553-0.232-1.116-0.504-1.678-0.777c-1.137-0.562-2.276-1.164-3.396-1.781l-0.008-0.004
		c-0.303-0.166-0.691-0.109-0.934,0.154c-0.283,0.314-0.26,0.797,0.053,1.08c0.971,0.883,1.947,1.738,2.963,2.58
		c0.51,0.422,1.021,0.838,1.573,1.248c0.277,0.203,0.554,0.404,0.875,0.607c0.156,0.1,0.315,0.201,0.525,0.305
		c0.151,0.094,0.478,0.221,0.812,0.307h0.001c0.74,0.16,1.507-0.244,1.778-0.977l0.053-0.141l3.243-8.717l3.524-8.633
		c1.212-2.838,2.459-5.672,3.688-8.51c0.033,2.037,0.164,4.148,0.562,6.244c0.459,2.457,1.288,4.898,2.533,7.119
		c1.245,2.217,2.861,4.219,4.734,5.877c1.447,1.312,3.041,2.414,4.692,3.383l-0.546,1.234c-0.417,0.967-0.906,1.932-1.358,2.898
		l-0.012,0.023c-0.137,0.295-0.075,0.654,0.176,0.887c0.312,0.287,0.796,0.268,1.083-0.043c0.734-0.795,1.488-1.559,2.21-2.387
		l2.193-2.482l0.041-0.049c0.486-0.604,0.391-1.482-0.211-1.967l-0.512-0.412c-3.841-2.129-7.172-5.064-9.108-8.799
		c-0.979-1.855-1.618-3.879-1.959-5.988c-0.347-2.115-0.397-4.287-0.343-6.566c0.04-1.143,0.017-2.357,0.004-3.547l-0.054-3.482
		c-0.072-2.301,0.021-4.584,0.029-6.875C-125.313,627.507-125.182,625.169-125.104,622.857z M-141.276,668.414l0.027-0.018
		C-141.235,668.4-141.241,668.412-141.276,668.414z"/>
</g>
</svg>
