<?xml version="1.0" encoding="utf-8"?>
<!-- Generator: Adobe Illustrator 16.0.0, SVG Export Plug-In . SVG Version: 6.00 Build 0)  -->
<!DOCTYPE svg PUBLIC "-//W3C//DTD SVG 1.1//EN" "http://www.w3.org/Graphics/SVG/1.1/DTD/svg11.dtd">
<svg version="1.1" id="Layer_1" xmlns="http://www.w3.org/2000/svg" xmlns:xlink="http://www.w3.org/1999/xlink" x="0px" y="0px"
	 width="56.083px" height="47.908px" viewBox="-158.741 266.472 56.083 47.908"
	 enable-background="new -158.741 266.472 56.083 47.908" xml:space="preserve">
<path fill="#EA9047" d="M-113.326,289.56l-5.298-22.006c-0.146-0.605-0.673-1.047-1.297-1.08c-0.624-0.035-1.193,0.344-1.408,0.931
	c-0.104,0.296-2.679,7.162-10.006,4.786c-0.739-0.238-1.537,0.168-1.778,0.907c-0.238,0.743,0.165,1.54,0.908,1.782
	c5.975,1.938,9.654-0.803,11.642-3.303l4.155,17.262h-24.147l1.653-5.125l3.982,0.158c0.02,0.002,0.04,0.004,0.057,0.004
	c0.753,0,1.381-0.598,1.412-1.355c0.032-0.779-0.577-1.438-1.354-1.468l-10.831-0.438c-0.773-0.037-1.438,0.575-1.469,1.356
	c-0.031,0.776,0.576,1.438,1.356,1.468l3.918,0.157l-1.964,6.075c-0.798-0.161-1.623-0.248-2.466-0.248
	c-6.88,0-12.48,5.6-12.48,12.479c0,6.882,5.601,12.478,12.48,12.478c6.878,0,12.476-5.596,12.476-12.478
	c0-4.237-2.122-7.983-5.359-10.241h16.889c-3.237,2.258-5.361,6.004-5.361,10.241c0,6.882,5.597,12.478,12.479,12.478
	c6.881,0,12.479-5.596,12.479-12.478C-102.659,295.639-107.304,290.438-113.326,289.56z M-136.61,301.904
	c0,5.323-4.33,9.652-9.65,9.652c-5.324,0-9.654-4.329-9.654-9.652c0-5.324,4.33-9.652,9.654-9.652c0.542,0,1.072,0.047,1.59,0.133
	l-2.935,9.087c-0.239,0.741,0.168,1.534,0.911,1.778c0.143,0.045,0.288,0.066,0.434,0.066c0.595,0,1.149-0.382,1.342-0.979
	l2.937-9.082C-138.801,294.835-136.61,298.115-136.61,301.904z M-115.139,311.557c-5.323,0-9.654-4.329-9.654-9.652
	c0-3.214,1.581-6.062,4.002-7.817l4.924,9.412c0.253,0.482,0.746,0.76,1.252,0.76c0.223,0,0.446-0.053,0.654-0.161
	c0.692-0.362,0.96-1.214,0.598-1.905l-4.923-9.41c0.988-0.341,2.046-0.529,3.147-0.529c5.322,0,9.652,4.328,9.652,9.652
	C-105.486,307.228-109.816,311.557-115.139,311.557z"/>
</svg>
