<?xml version="1.0" encoding="utf-8"?>
<!-- Generator: Adobe Illustrator 16.0.0, SVG Export Plug-In . SVG Version: 6.00 Build 0)  -->
<!DOCTYPE svg PUBLIC "-//W3C//DTD SVG 1.1//EN" "http://www.w3.org/Graphics/SVG/1.1/DTD/svg11.dtd">
<svg version="1.1" id="Layer_1" xmlns="http://www.w3.org/2000/svg" xmlns:xlink="http://www.w3.org/1999/xlink" x="0px" y="0px"
	 width="59.989px" height="65.652px" viewBox="-158.399 380.77 59.989 65.652"
	 enable-background="new -158.399 380.77 59.989 65.652" xml:space="preserve">
<path fill="#8B1E35" d="M-98.598,416.248c-0.689-0.768-1.347-1.553-2.068-2.312l-2.163-2.306l-0.034-0.035
	c-0.522-0.52-1.366-0.514-1.881,0.009l-0.453,0.457c-1.16,1.651-2.479,3.181-4.033,4.271c-1.538,1.111-3.282,1.797-5.09,1.907
	c-1.807,0.132-3.666-0.299-5.392-1.097c-0.864-0.398-1.697-0.893-2.479-1.451c-0.768-0.554-1.528-1.221-2.112-1.857
	c-0.675-0.76-1.372-1.578-1.896-2.334c-0.541-0.778-1.001-1.617-1.423-2.508c-0.819-1.805-1.459-3.787-2.023-5.807
	c-0.563-2.021-1.027-4.104-1.476-6.186l-0.622-3.129l-0.231-1.277c0.822-0.033,1.978-0.088,3.354-0.041
	c1.417,0.041,3.068,0.166,4.707,0.58c0.823,0.201,1.635,0.486,2.384,0.873c0.389,0.178,0.711,0.432,1.069,0.652
	c0.296,0.279,0.661,0.508,0.9,0.84c0.587,0.582,0.936,1.346,1.26,2.112c0.107,0.392,0.232,0.856,0.311,1.19
	c0.054,0.459,0.157,0.976,0.168,1.375c0.044,0.789,0.044,1.64-0.102,2.398c-0.107,0.768-0.334,1.473-0.581,2.105
	c-0.524,1.257-1.209,2.201-1.749,2.787c-0.54,0.59-0.907,0.852-0.876,0.83c-0.342,0.229-0.435,0.691-0.205,1.033
	c0.228,0.344,0.691,0.438,1.034,0.207c0.03-0.021,0.497-0.312,1.18-0.966c0.68-0.646,1.556-1.687,2.282-3.141
	c0.346-0.729,0.67-1.56,0.866-2.472c0.23-0.91,0.312-1.873,0.315-2.942c0.01-0.533-0.053-0.957-0.076-1.451
	c-0.081-0.61-0.187-1.091-0.306-1.649c-0.342-1.061-0.785-2.164-1.548-3.062c-0.332-0.491-0.785-0.854-1.195-1.269
	c-0.452-0.342-0.898-0.719-1.381-0.985c-0.954-0.581-1.949-1.001-2.917-1.312c-1.94-0.629-3.774-0.883-5.326-1.039
	c-1.552-0.156-2.846-0.18-3.757-0.199c-0.811-0.008-1.28-0.01-1.344-0.01c-0.084-0.047-0.169-0.097-0.259-0.133
	c1.733-0.857,2.729-2.807,2.289-4.777c-0.519-2.316-2.817-3.773-5.135-3.256c-2.315,0.52-3.774,2.817-3.255,5.133
	c0.409,1.834,1.937,3.109,3.703,3.314c-0.182,0.157-0.339,0.336-0.464,0.538c-0.232,0.164-0.434,0.377-0.572,0.647
	c0,0-0.227,0.441-0.624,1.218c-0.393,0.729-0.949,1.784-1.718,2.983c-0.762,1.196-1.71,2.553-2.905,3.752
	c-0.591,0.605-1.251,1.158-1.966,1.602c-0.35,0.246-0.734,0.393-1.107,0.588c-0.391,0.112-0.772,0.309-1.181,0.348
	c-0.801,0.207-1.636,0.117-2.462,0.002c-0.39-0.104-0.854-0.235-1.182-0.34c-0.424-0.189-0.919-0.363-1.268-0.558
	c-0.7-0.367-1.433-0.799-2.01-1.312c-0.607-0.487-1.097-1.041-1.516-1.576c-0.812-1.092-1.275-2.164-1.501-2.928
	c-0.232-0.766-0.271-1.216-0.269-1.177c-0.022-0.411-0.373-0.728-0.783-0.706c-0.412,0.021-0.728,0.373-0.706,0.784
	c0.004,0.036,0.016,0.589,0.228,1.507c0.207,0.916,0.655,2.199,1.533,3.566c0.453,0.671,1,1.373,1.683,2.008
	c0.664,0.662,1.454,1.225,2.371,1.773c0.454,0.28,0.85,0.443,1.286,0.674c0.565,0.242,1.034,0.396,1.573,0.58
	c1.087,0.248,2.265,0.431,3.425,0.232c0.592-0.033,1.137-0.238,1.701-0.379c0.523-0.214,1.077-0.404,1.552-0.686
	c0.986-0.521,1.855-1.166,2.617-1.838c1.534-1.349,2.686-2.795,3.613-4.052c0.263-0.356,0.502-0.696,0.728-1.024l0.549,2.429
	c0.519,2.142,1.053,4.282,1.71,6.421c0.365,1.184,0.761,2.367,1.212,3.548c-0.108,0.062-0.216,0.125-0.315,0.204
	c-0.331,0.264-0.62,0.469-0.986,0.782c-0.369,0.34-0.797,0.694-1.102,1.034c-0.652,0.683-1.252,1.4-1.776,2.156
	c-0.535,0.75-1.012,1.531-1.423,2.336c-0.428,0.797-0.794,1.617-1.11,2.453c-0.327,0.832-0.604,1.678-0.826,2.534
	c-0.239,0.854-0.424,1.722-0.563,2.591c-0.288,1.742-0.408,3.508-0.348,5.273c0.121,3.52,0.956,7.098,2.807,10.24
	c0.923,1.564,2.105,2.998,3.504,4.186c0.621,0.527,1.287,0.992,1.976,1.42c-0.14,0.076-0.271,0.154-0.411,0.23
	c-1.069,0.566-2.174,1.117-3.274,1.643l-0.01,0.002c-0.292,0.141-0.465,0.463-0.403,0.797c0.077,0.395,0.457,0.654,0.854,0.58
	c1.23-0.234,2.445-0.486,3.673-0.777c0.615-0.146,1.23-0.299,1.858-0.484c0.315-0.094,0.631-0.191,0.972-0.32
	c0.167-0.062,0.337-0.125,0.538-0.23c0.159-0.061,0.45-0.244,0.712-0.457v-0.002c0.156-0.137,0.293-0.312,0.389-0.512
	c0.379-0.797,0.041-1.754-0.758-2.133l-0.189-0.09l-0.979-0.467c-0.32-0.17-0.621-0.363-0.934-0.541
	c-0.6-0.391-1.171-0.818-1.699-1.301c-1.052-0.957-1.931-2.102-2.619-3.365c-1.381-2.533-1.992-5.518-1.988-8.492
	c0.001-1.49,0.155-2.984,0.45-4.447c0.143-0.73,0.323-1.455,0.551-2.162c0.21-0.711,0.464-1.408,0.758-2.082
	c0.283-0.678,0.606-1.338,0.972-1.963c0.351-0.631,0.748-1.232,1.179-1.793c0.422-0.567,0.892-1.086,1.382-1.562
	c0.245-0.262,0.467-0.404,0.691-0.619c0.132-0.107,0.296-0.229,0.468-0.354c0.326,0.559,0.678,1.106,1.066,1.635
	c0.743,1.002,1.483,1.812,2.265,2.654c0.908,0.937,1.816,1.672,2.819,2.365c0.998,0.676,2.055,1.266,3.171,1.746
	c2.223,0.959,4.732,1.494,7.261,1.248c2.527-0.221,4.943-1.271,6.867-2.752c1.528-1.141,2.769-2.523,3.848-3.984l1.135,0.633
	c0.882,0.482,1.753,1.035,2.634,1.551l0.021,0.013c0.268,0.155,0.616,0.13,0.857-0.087
	C-98.352,417.012-98.327,416.548-98.598,416.248z M-130.624,441.806l-0.007-0.027C-130.613,441.763-130.603,441.777-130.624,441.806
	z"/>
</svg>
