<?xml version="1.0" encoding="utf-8"?>
<!-- Generator: Adobe Illustrator 16.0.0, SVG Export Plug-In . SVG Version: 6.00 Build 0)  -->
<!DOCTYPE svg PUBLIC "-//W3C//DTD SVG 1.1//EN" "http://www.w3.org/Graphics/SVG/1.1/DTD/svg11.dtd">
<svg version="1.1" id="Layer_1" xmlns="http://www.w3.org/2000/svg" xmlns:xlink="http://www.w3.org/1999/xlink" x="0px" y="0px"
	 width="38px" height="38px" viewBox="0.86 -69.591 38 38" enable-background="new 0.86 -69.591 38 38" xml:space="preserve">
<g>
	<path fill="none" d="M26.382-53.583v2.303h-2.707v-2.291c-0.693-0.444-1.158-1.218-1.158-2.104v-0.205h-5.25v0.205
		c0,0.911-0.492,1.701-1.221,2.137v2.257h-2.707v-2.346c-0.647-0.452-1.072-1.199-1.072-2.048v-0.205h-0.395v13.12h15.977v-13.12
		h-0.332v0.205C27.517-54.797,27.063-54.029,26.382-53.583z M16.046-44.317h-2.707v-2.707h2.707V-44.317z M16.046-47.842h-2.707
		v-2.707h2.707V-47.842z M19.491-44.317h-2.707v-2.707h2.707V-44.317z M19.491-47.842h-2.707v-2.707h2.707V-47.842z M19.491-51.28
		h-2.707v-2.707h2.707V-51.28z M22.937-44.317H20.23v-2.707h2.707V-44.317z M22.937-47.842H20.23v-2.707h2.707V-47.842z
		 M22.937-51.28H20.23v-2.707h2.707V-51.28z M26.382-44.317h-2.707v-2.707h2.707V-44.317z M26.382-47.842h-2.707v-2.707h2.707
		V-47.842z"/>
	<path fill="none" d="M19.86-67.591c-9.374,0-17,7.626-17,17s7.626,17,17,17c9.374,0,17-7.626,17-17S29.233-67.591,19.86-67.591z
		 M29.849-41.758c0,0.552-0.447,1-1,1H10.872c-0.551,0-1-0.448-1-1v-15.12c0-0.552,0.449-1,1-1h1.395v-2.545
		c0-1.381,1.119-2.5,2.5-2.5s2.5,1.119,2.5,2.5v2.545h5.25v-2.545c0-1.381,1.119-2.5,2.5-2.5s2.5,1.119,2.5,2.5v2.545h1.332
		c0.553,0,1,0.448,1,1V-41.758z"/>
	<path fill="#FFFFFF" d="M19.86-69.591c-10.477,0-19,8.523-19,19c0,10.477,8.523,19,19,19s19-8.523,19-19
		C38.86-61.068,30.337-69.591,19.86-69.591z M19.86-33.591c-9.374,0-17-7.626-17-17s7.626-17,17-17c9.374,0,17,7.626,17,17
		S29.233-33.591,19.86-33.591z"/>
	<path fill="#FFFFFF" d="M28.849-57.878h-1.332v2h0.332v13.12H11.872v-13.12h0.395v-2h-1.395c-0.551,0-1,0.448-1,1v15.12
		c0,0.552,0.449,1,1,1h17.977c0.553,0,1-0.448,1-1v-15.12C29.849-57.431,29.401-57.878,28.849-57.878z"/>
	<rect x="17.267" y="-57.878" fill="#FFFFFF" width="5.25" height="2"/>
	<path fill="#FFFFFF" d="M13.767-55.674c0,0.552,0.447,1,1,1c0.553,0,1-0.448,1-1v-3.75c0-0.552-0.447-1-1-1c-0.553,0-1,0.448-1,1
		V-55.674z"/>
	<path fill="#FFFFFF" d="M24.017-55.674c0,0.552,0.447,1,1,1s1-0.448,1-1v-3.75c0-0.552-0.447-1-1-1s-1,0.448-1,1V-55.674z"/>
	<rect x="13.339" y="-50.549" fill="#FFFFFF" width="2.707" height="2.707"/>
	<rect x="16.784" y="-50.549" fill="#FFFFFF" width="2.707" height="2.707"/>
	<rect x="20.229" y="-50.549" fill="#FFFFFF" width="2.708" height="2.707"/>
	<rect x="23.675" y="-50.549" fill="#FFFFFF" width="2.707" height="2.707"/>
	<polygon fill="#FFFFFF" points="16.046,-51.28 16.046,-53.537 16.046,-53.987 13.339,-53.987 13.339,-53.625 13.339,-51.28 	"/>
	<rect x="16.784" y="-53.987" fill="#FFFFFF" width="2.707" height="2.707"/>
	<rect x="20.229" y="-53.987" fill="#FFFFFF" width="2.708" height="2.707"/>
	<polygon fill="#FFFFFF" points="26.382,-51.28 26.382,-53.583 26.382,-53.987 23.675,-53.987 23.675,-53.57 23.675,-51.28 	"/>
	<rect x="13.339" y="-47.024" fill="#FFFFFF" width="2.707" height="2.707"/>
	<rect x="16.784" y="-47.024" fill="#FFFFFF" width="2.707" height="2.707"/>
	<rect x="20.229" y="-47.024" fill="#FFFFFF" width="2.708" height="2.707"/>
	<rect x="23.675" y="-47.024" fill="#FFFFFF" width="2.707" height="2.707"/>
</g>
</svg>
