<?xml version="1.0" encoding="utf-8"?>
<!-- Generator: Adobe Illustrator 16.0.0, SVG Export Plug-In . SVG Version: 6.00 Build 0)  -->
<!DOCTYPE svg PUBLIC "-//W3C//DTD SVG 1.1//EN" "http://www.w3.org/Graphics/SVG/1.1/DTD/svg11.dtd">
<svg version="1.1" id="Layer_1" xmlns="http://www.w3.org/2000/svg" xmlns:xlink="http://www.w3.org/1999/xlink" x="0px" y="0px"
	 width="39.564px" height="23.903px" viewBox="-168.535 710.238 39.564 23.903"
	 enable-background="new -168.535 710.238 39.564 23.903" xml:space="preserve">
<g>
	<g>
		<path fill="#9B9B9B" d="M-168.384,725.646c1.872,3.119,5.989,4.744,9.171,2.227c1.637-1.295,2.619-3.043,5.264-1.801
			c0.887,0.416,1.732,1.309,2.544,1.891c1.354,0.971,3.056,1.527,4.692,1.193c1.045-0.215,1.871-1.26,2.458-2.059
			c1.845-2.508,3.604-3.277,6.507-1.682c3.135,1.723,5.835,3.162,8.527-0.07c0.828-0.994-0.595-2.434-1.43-1.43
			c-2.931,3.518-5.844-1.092-9.121-1.451c-2.676-0.297-4.402,1.139-5.904,3.17c-2.76,3.73-5.917-1.166-9.098-1.979
			c-1.394-0.355-2.746,0.219-3.83,1.033c-2.736,2.059-5.739,3.762-8.033-0.062C-167.308,723.509-169.057,724.527-168.384,725.646
			L-168.384,725.646z"/>
	</g>
	<g>
		<path fill="#9B9B9B" d="M-168.384,730.535c1.872,3.121,5.989,4.746,9.171,2.227c1.637-1.295,2.619-3.043,5.264-1.801
			c0.887,0.416,1.732,1.307,2.544,1.891c1.354,0.971,3.056,1.527,4.692,1.191c1.045-0.213,1.871-1.258,2.458-2.057
			c1.845-2.508,3.604-3.277,6.507-1.682c3.135,1.725,5.835,3.162,8.527-0.07c0.828-0.994-0.595-2.434-1.43-1.43
			c-2.931,3.52-5.844-1.09-9.121-1.453c-2.676-0.295-4.402,1.141-5.904,3.172c-2.76,3.732-5.917-1.166-9.098-1.979
			c-1.394-0.355-2.746,0.219-3.83,1.033c-2.736,2.057-5.739,3.762-8.033-0.062C-167.308,728.398-169.057,729.414-168.384,730.535
			L-168.384,730.535z"/>
	</g>
	<path fill="#9B9B9B" d="M-148.293,723.003c0,0,0.059-0.059,0.167-0.168c0.054-0.055,0.121-0.121,0.199-0.201
		c0.082-0.08,0.177-0.174,0.223-0.246c0.063-0.076,0.133-0.164,0.21-0.26c0.069-0.111,0.145-0.232,0.225-0.361
		c0.084-0.131,0.125-0.281,0.201-0.434c0.057-0.156,0.099-0.326,0.142-0.504c0.058-0.361,0.073-0.771-0.009-1.217
		c-0.095-0.445-0.244-0.93-0.502-1.41c-0.255-0.479-0.562-0.973-0.946-1.436c-0.374-0.469-0.798-0.924-1.255-1.35
		c-1.826-1.723-4.09-3.031-5.857-3.736c-0.886-0.357-1.652-0.564-2.19-0.664c-0.269-0.049-0.48-0.078-0.624-0.084
		c-0.145-0.014-0.221-0.02-0.221-0.02l-0.031-0.004c-0.186-0.018-0.322-0.18-0.306-0.365c0.015-0.174,0.163-0.307,0.337-0.307
		c0,0,0.086,0,0.248,0.002c0.165-0.004,0.402,0.01,0.701,0.037c0.597,0.062,1.434,0.221,2.398,0.523
		c1.93,0.604,4.386,1.766,6.529,3.48c0.536,0.426,1.049,0.893,1.521,1.396c0.48,0.494,0.899,1.051,1.268,1.627
		c0.368,0.58,0.64,1.217,0.827,1.861c0.177,0.65,0.221,1.318,0.168,1.934c-0.041,0.305-0.093,0.602-0.166,0.869
		c-0.093,0.262-0.162,0.527-0.272,0.746c-0.11,0.221-0.208,0.428-0.315,0.615c-0.126,0.186-0.242,0.354-0.347,0.51
		c-0.114,0.168-0.194,0.258-0.267,0.34c-0.072,0.086-0.133,0.158-0.182,0.217c-0.102,0.117-0.153,0.18-0.153,0.18l-0.003,0.004
		c-0.418,0.49-1.154,0.551-1.646,0.133c-0.491-0.416-0.551-1.152-0.134-1.645C-148.336,723.048-148.312,723.023-148.293,723.003z"/>
	<circle fill="#9B9B9B" cx="-151.234" cy="720.281" r="2.512"/>
</g>
</svg>
