<?xml version="1.0" encoding="utf-8"?>
<!-- Generator: Adobe Illustrator 16.0.0, SVG Export Plug-In . SVG Version: 6.00 Build 0)  -->
<!DOCTYPE svg PUBLIC "-//W3C//DTD SVG 1.1//EN" "http://www.w3.org/Graphics/SVG/1.1/DTD/svg11.dtd">
<svg version="1.1" id="Layer_1" xmlns="http://www.w3.org/2000/svg" xmlns:xlink="http://www.w3.org/1999/xlink" x="0px" y="0px"
	 width="26.501px" height="33.031px" viewBox="113.898 648.164 26.501 33.031"
	 enable-background="new 113.898 648.164 26.501 33.031" xml:space="preserve">
<g>
	<g>
		<path fill="#FFFFFF" d="M140.251,662.785c-0.634,5.453-5.705,11.562-13.594,11.291c-7.319-0.25-12.002-6.09-12.577-11.281
			c0.435,0,0.864-0.027,1.289,0.018c0.103,0.012,0.229,0.246,0.262,0.396c0.244,1.17,0.644,2.283,1.242,3.312
			c1.959,3.375,4.854,5.406,8.731,5.947c6.09,0.85,11.844-3.229,13.065-9.232c0.065-0.316,0.172-0.494,0.54-0.457
			C139.552,662.812,139.899,662.785,140.251,662.785z"/>
		<path fill="#FFFFFF" d="M124.655,667.423c0-0.16,0-0.297,0-0.436c0-3.379,0.009-6.756-0.012-10.135
			c-0.002-0.438,0.135-0.549,0.545-0.533c0.822,0.031,1.648-0.016,2.471,0.027c1.443,0.076,2.027,0.627,2.061,2.082
			c0.049,2.23,0.066,4.463-0.007,6.691c-0.041,1.23-0.46,2.186-2.075,2.291C126.668,667.476,125.69,667.423,124.655,667.423z
			 M126.151,657.589c0,2.893,0,5.723,0,8.596c0.209,0.014,0.4,0.035,0.593,0.035c0.998,0.002,1.341-0.227,1.463-1.211
			c0.103-0.811,0.062-1.643,0.065-2.467c0.008-1.188,0.013-2.375-0.006-3.562c-0.014-0.836-0.351-1.303-0.996-1.383
			C126.917,657.552,126.554,657.589,126.151,657.589z"/>
		<path fill="#FFFFFF" d="M134.563,664.337c0.48,0,0.896,0,1.362,0c0.009,0.732,0.144,1.457-0.116,2.154
			c-0.273,0.742-0.92,0.98-1.627,1.047c-0.412,0.037-0.84,0.01-1.248-0.061c-1.033-0.176-1.699-0.859-1.717-1.912
			c-0.043-2.389-0.087-4.777,0.01-7.162c0.068-1.676,1.25-2.309,2.819-2.164c1.152,0.104,1.743,0.578,1.863,1.42
			c0.075,0.529,0.015,1.08,0.015,1.646c-0.447,0-0.873,0-1.363,0c0-0.305,0.008-0.607-0.002-0.908
			c-0.021-0.623-0.308-0.971-0.83-1.02c-0.549-0.053-0.864,0.201-1.002,0.834c-0.043,0.203-0.06,0.414-0.06,0.623
			c-0.005,2.08-0.006,4.162,0.001,6.244c0.001,0.221,0.039,0.443,0.091,0.658c0.099,0.41,0.361,0.652,0.796,0.674
			c0.4,0.02,0.764-0.225,0.896-0.625c0.067-0.209,0.093-0.436,0.108-0.656C134.578,664.884,134.563,664.634,134.563,664.337z"/>
		<path fill="#FFFFFF" d="M118.297,664.347c0.479,0,0.902,0,1.333,0c0.042,0.438,0.053,0.855,0.129,1.262
			c0.102,0.527,0.456,0.812,0.92,0.807c0.459-0.006,0.778-0.307,0.866-0.857c0.048-0.301,0.062-0.609,0.063-0.918
			c0.004-2.582,0.002-5.164,0.002-7.746c0.002-0.561,0.004-0.561,0.549-0.564c0.947-0.004,0.947-0.004,0.947,0.941
			c0,2.525,0.004,5.053-0.004,7.578c-0.002,0.334-0.035,0.672-0.102,0.996c-0.207,1.025-0.891,1.617-1.998,1.695
			c-0.439,0.033-0.895,0-1.329-0.076c-0.821-0.145-1.321-0.727-1.372-1.562C118.271,665.4,118.297,664.896,118.297,664.347z"/>
		<path fill="#FFFFFF" d="M119.74,681.195c0-0.422,0-0.811,0-1.232c4.915,0,9.821,0,14.758,0c0,0.41,0,0.807,0,1.232
			C129.582,681.195,124.685,681.195,119.74,681.195z"/>
		<path fill="#FFFFFF" d="M127.199,677.626c1.479,0,2.961,0.01,4.44-0.006c0.35-0.004,0.454,0.104,0.446,0.451
			c-0.021,0.84-0.003,0.84-0.849,0.84c-2.809,0-5.614,0-8.422,0c-0.592,0-0.599-0.002-0.592-0.592
			c0.006-0.738-0.111-0.691,0.7-0.693C124.351,677.625,125.774,677.626,127.199,677.626z"/>
		<path fill="#FFFFFF" d="M139.455,655.312c0.62,1.184,1.012,2.43,0.935,3.783c-0.031,0.535-0.132,1.072-0.27,1.59
			c-0.087,0.326-0.329,0.59-0.729,0.58c-0.396-0.012-0.6-0.281-0.721-0.604c-0.421-1.129-0.335-2.277-0.051-3.41
			c0.167-0.666,0.449-1.305,0.681-1.955C139.353,655.3,139.403,655.306,139.455,655.312z"/>
		<path fill="#FFFFFF" d="M127.161,648.164c0.855,1.664,1.224,3.301,0.863,5.053c-0.131,0.639-0.476,0.998-0.855,1.006
			c-0.395,0.006-0.748-0.342-0.878-0.979C125.935,651.48,126.276,649.828,127.161,648.164z"/>
		<path fill="#FFFFFF" d="M115.015,655.31c0.241,0.729,0.517,1.449,0.717,2.189c0.231,0.854,0.244,1.734,0.078,2.605
			c-0.049,0.256-0.131,0.518-0.258,0.742c-0.335,0.611-1.007,0.627-1.295-0.004c-0.197-0.428-0.29-0.926-0.333-1.4
			c-0.126-1.381,0.218-2.676,0.828-3.908c0.035-0.07,0.087-0.133,0.131-0.199C114.927,655.328,114.972,655.318,115.015,655.31z"/>
		<path fill="#FFFFFF" d="M130.388,675.22c0,0.473,0,0.857,0,1.281c-0.15,0.008-0.285,0.021-0.421,0.021
			c-1.873,0-3.743-0.01-5.616,0.008c-0.357,0.004-0.494-0.078-0.481-0.459c0.032-1.02-0.089-0.844,0.843-0.85
			c1.719-0.01,3.436-0.002,5.154-0.002C130.028,675.22,130.192,675.22,130.388,675.22z"/>
	</g>
</g>
</svg>
