<?xml version="1.0" encoding="utf-8"?>
<!-- Generator: Adobe Illustrator 16.0.0, SVG Export Plug-In . SVG Version: 6.00 Build 0)  -->
<!DOCTYPE svg PUBLIC "-//W3C//DTD SVG 1.1//EN" "http://www.w3.org/Graphics/SVG/1.1/DTD/svg11.dtd">
<svg version="1.1" id="Layer_1" xmlns="http://www.w3.org/2000/svg" xmlns:xlink="http://www.w3.org/1999/xlink" x="0px" y="0px"
	 width="57.873px" height="55.938px" viewBox="-158.418 496.621 57.873 55.938"
	 enable-background="new -158.418 496.621 57.873 55.938" xml:space="preserve">
<path fill="#3C61A5" d="M-120.064,546.451c1.982-0.207,3.971-0.502,5.983-0.982c2.011-0.506,4.042-1.15,6.099-2.529
	c1.005-0.703,2.082-1.68,2.766-3.17c0.338-0.744,0.53-1.551,0.55-2.418c0.005-0.221-0.004-0.551-0.013-0.615l-0.012-0.18
	l-0.025-0.225l-0.024-0.152c-0.057-0.398-0.172-0.826-0.335-1.252c-0.322-0.852-0.943-1.688-1.657-2.254
	c-0.269-0.215-0.546-0.371-0.821-0.527c1.592-0.562,2.99-1.4,4.066-2.418c1.832-1.688,2.599-3.771,2.817-5.16
	c0.11-0.707,0.131-1.266,0.124-1.641c-0.011-0.373-0.016-0.572-0.016-0.572c-0.019-0.617-0.51-1.133-1.138-1.164
	c-0.661-0.035-1.227,0.475-1.261,1.135l-0.006,0.105c0,0-0.008,0.152-0.022,0.438c-0.016,0.283-0.065,0.693-0.183,1.195
	c-0.243,0.99-0.863,2.359-2.252,3.461c-1.354,1.105-3.457,1.881-5.713,1.879c-1.124,0-2.277-0.189-3.327-0.6
	c-0.278-0.104-0.495-0.215-0.712-0.312c-0.301-0.162-0.623-0.338-0.845-0.477c-0.498-0.297-0.978-0.646-1.436-1.043
	c-1.843-1.568-3.315-3.742-4.474-5.896c-1.158-2.168-2.013-4.352-2.649-6.246c-0.604-1.797-1.001-3.326-1.262-4.445
	c-0.012-0.48-0.112-0.941-0.294-1.359c-0.01-0.045-0.022-0.107-0.031-0.146c-0.062-0.324-0.097-0.496-0.097-0.496
	c-0.012-0.062-0.027-0.131-0.044-0.191c-0.188-0.701-0.629-1.264-1.193-1.629c1.87-0.779,3.188-2.621,3.188-4.773
	c0-2.854-2.315-5.168-5.17-5.168s-5.169,2.314-5.169,5.168c0,2.139,1.297,3.971,3.146,4.758c-0.6,0.404-1.046,1.039-1.194,1.807
	c0,0-0.034,0.172-0.097,0.494c-0.012,0.055-0.028,0.137-0.041,0.199c-0.17,0.396-0.262,0.834-0.278,1.289
	c-0.263,1.121-0.661,2.662-1.266,4.471c-0.638,1.896-1.491,4.082-2.649,6.254c-1.155,2.156-2.627,4.336-4.469,5.908
	c-0.456,0.396-0.936,0.746-1.434,1.043c-0.226,0.141-0.539,0.312-0.847,0.48c-0.218,0.1-0.432,0.211-0.71,0.312
	c-1.051,0.41-2.204,0.602-3.328,0.602c-2.258,0.006-4.363-0.77-5.718-1.877c-1.39-1.1-2.01-2.469-2.255-3.461
	c-0.117-0.502-0.167-0.914-0.183-1.195c-0.015-0.285-0.022-0.438-0.022-0.438l-0.006-0.109c-0.034-0.617-0.536-1.115-1.165-1.135
	c-0.663-0.02-1.214,0.504-1.233,1.166c0,0-0.005,0.201-0.016,0.574c-0.007,0.377,0.014,0.934,0.124,1.641
	c0.22,1.391,0.987,3.475,2.821,5.164c1.073,1.014,2.471,1.85,4.062,2.414c-0.276,0.154-0.554,0.312-0.823,0.525
	c-0.714,0.566-1.335,1.402-1.657,2.256c-0.163,0.426-0.278,0.854-0.335,1.252l-0.024,0.152l-0.025,0.225l-0.012,0.18
	c-0.009,0.062-0.017,0.395-0.013,0.615c0.02,0.865,0.213,1.672,0.55,2.418c0.684,1.49,1.761,2.465,2.766,3.17
	c2.058,1.377,4.089,2.023,6.099,2.527c2.013,0.482,4.001,0.775,5.984,0.984c1.452,0.125,2.886,0.195,4.337,0.223
	c0.033,0.504,0.089,1.012,0.147,1.518c0.098,0.566,0.171,1.123,0.327,1.697c0.114,0.562,0.346,1.148,0.549,1.721
	c0.238,0.66,0.933,1.062,1.64,0.914c0.771-0.164,1.265-0.922,1.102-1.693l-0.05-0.238c-0.091-0.428-0.215-0.822-0.257-1.293
	c-0.076-0.439-0.085-0.924-0.118-1.391c-0.003-0.479-0.011-0.955,0.015-1.439c0.017-0.473,0.06-0.982,0.109-1.402l0.205-1.695
	l-1.901-0.203c-0.885-0.107-1.837-0.24-2.752-0.379c-0.924-0.143-1.844-0.309-2.753-0.49c-1.822-0.346-3.618-0.771-5.309-1.334
	c-1.671-0.559-3.32-1.234-4.407-2.098c-0.542-0.422-0.865-0.865-0.951-1.15c-0.05-0.135-0.059-0.291-0.046-0.383
	c0-0.002,0,0.002,0,0c0-0.008,0-0.025,0.012-0.105l0.021-0.18l0.006-0.045c-0.002,0.014-0.002,0.01,0,0.004
	c-0.002,0.018-0.006,0.045-0.012,0.098l0.002-0.002l0.003-0.01l0.007-0.023c0.012-0.078,0.037-0.111,0.046-0.137
	c0.029-0.041,0.013,0.004,0.05-0.025c0.047-0.02,0.165-0.094,0.398-0.15c0.459-0.125,1.203-0.174,1.987-0.133
	c1.593,0.08,3.376,0.445,5.159,0.836c1.795,0.406,3.61,0.91,5.479,1.4c0.939,0.238,1.889,0.479,2.885,0.701
	c1.011,0.207,2.018,0.459,3.421,0.492l0.021,0.002h0.025c0.01,0,0.021-0.002,0.031-0.002c0.012,0,0.023,0.002,0.034,0.002
	l0.021-0.002c1.403-0.033,2.41-0.285,3.421-0.492c0.996-0.225,1.945-0.463,2.885-0.701c1.869-0.49,3.686-0.994,5.479-1.4
	c1.783-0.391,3.567-0.756,5.159-0.836c0.784-0.041,1.528,0.008,1.987,0.133c0.233,0.059,0.352,0.133,0.398,0.15
	c0.037,0.029,0.021-0.016,0.05,0.025c0.009,0.023,0.035,0.059,0.046,0.137l0.007,0.023l0.004,0.01l0.001,0.002
	c-0.006-0.053-0.01-0.08-0.012-0.098c0.002,0.006,0.002,0.01,0-0.004l0.006,0.045l0.021,0.18c0.012,0.08,0.012,0.1,0.012,0.105
	c0,0.002,0-0.002,0,0c0.013,0.092,0.004,0.248-0.046,0.383c-0.086,0.285-0.409,0.73-0.951,1.15
	c-1.087,0.863-2.736,1.539-4.407,2.098c-1.69,0.562-3.486,0.988-5.309,1.334c-0.909,0.184-1.829,0.35-2.753,0.49
	c-0.915,0.139-1.867,0.271-2.752,0.379l-1.901,0.203l0.205,1.695c0.05,0.42,0.093,0.932,0.109,1.402
	c0.026,0.484,0.018,0.961,0.015,1.439c-0.033,0.467-0.041,0.949-0.118,1.391c-0.042,0.471-0.166,0.865-0.257,1.293l-0.05,0.238
	c-0.147,0.689,0.233,1.396,0.913,1.641c0.743,0.266,1.56-0.119,1.828-0.861c0.203-0.57,0.435-1.156,0.549-1.721
	c0.156-0.574,0.229-1.131,0.328-1.697c0.058-0.504,0.113-1.012,0.146-1.518C-122.951,546.646-121.518,546.578-120.064,546.451z
	 M-140.102,531.892c-0.425-0.092-0.854-0.18-1.285-0.26c0.112-0.055,0.219-0.105,0.345-0.172c0.734-0.369,1.426-0.807,2.068-1.287
	c2.521-1.877,4.36-4.273,5.843-6.59v10.045l-1.26-0.332C-136.241,532.81-138.141,532.318-140.102,531.892z M-118.864,531.892
	c-1.96,0.426-3.86,0.918-5.711,1.404l-1.257,0.332v-10.033c1.486,2.318,3.33,4.713,5.855,6.588c0.643,0.48,1.334,0.916,2.068,1.285
	c0.121,0.062,0.224,0.109,0.331,0.162C-118.01,531.712-118.438,531.8-118.864,531.892z"/>
</svg>
