<?xml version="1.0" encoding="utf-8"?>
<!-- Generator: Adobe Illustrator 16.0.0, SVG Export Plug-In . SVG Version: 6.00 Build 0)  -->
<!DOCTYPE svg PUBLIC "-//W3C//DTD SVG 1.1//EN" "http://www.w3.org/Graphics/SVG/1.1/DTD/svg11.dtd">
<svg version="1.1" id="Layer_1" xmlns="http://www.w3.org/2000/svg" xmlns:xlink="http://www.w3.org/1999/xlink" x="0px" y="0px"
	 width="31.727px" height="31.729px" viewBox="-654.53 170.998 31.727 31.729"
	 enable-background="new -654.53 170.998 31.727 31.729" xml:space="preserve">
<path opacity="0.5" fill="none" stroke="#5D5D5D" stroke-width="3" stroke-miterlimit="10" enable-background="new    " d="
	M-627.275,183.89h-8.42v-8.42c0-1.641-1.331-2.973-2.972-2.973c-1.642,0-2.972,1.332-2.972,2.973v8.42h-8.419
	c-1.641,0-2.972,1.331-2.972,2.972c0,1.642,1.331,2.972,2.972,2.972h8.419v8.42c0,1.642,1.331,2.973,2.972,2.973
	s2.972-1.331,2.972-2.973v-8.42h8.42c1.641,0,2.972-1.33,2.972-2.972C-624.304,185.22-625.634,183.89-627.275,183.89z"/>
</svg>
