<?xml version="1.0" encoding="utf-8"?>
<!-- Generator: Adobe Illustrator 16.0.0, SVG Export Plug-In . SVG Version: 6.00 Build 0)  -->
<!DOCTYPE svg PUBLIC "-//W3C//DTD SVG 1.1//EN" "http://www.w3.org/Graphics/SVG/1.1/DTD/svg11.dtd">
<svg version="1.1" id="Layer_1" xmlns="http://www.w3.org/2000/svg" xmlns:xlink="http://www.w3.org/1999/xlink" x="0px" y="0px"
	 width="82.503px" height="82.503px" viewBox="0 0 82.503 82.503" enable-background="new 0 0 82.503 82.503" xml:space="preserve">
<g>
	<g>
		<circle fill="#FFFFFF" cx="41.251" cy="41.252" r="41.251"/>
	</g>
	<path fill="#EA9047" d="M58.576,34.642l-5.298-22.006c-0.146-0.605-0.673-1.046-1.297-1.08c-0.624-0.035-1.193,0.344-1.408,0.931
		c-0.104,0.295-2.679,7.162-10.006,4.786c-0.739-0.239-1.537,0.168-1.778,0.907c-0.238,0.744,0.165,1.54,0.908,1.782
		c5.975,1.938,9.654-0.803,11.642-3.303l4.155,17.262H31.347L33,28.796l3.982,0.159c0.02,0.002,0.04,0.004,0.057,0.004
		c0.753,0,1.381-0.598,1.412-1.356c0.032-0.779-0.577-1.438-1.354-1.468l-10.831-0.438c-0.773-0.037-1.437,0.575-1.469,1.356
		c-0.031,0.776,0.576,1.438,1.356,1.468l3.918,0.157l-1.964,6.075c-0.798-0.161-1.623-0.247-2.466-0.247
		c-6.88,0-12.48,5.599-12.48,12.479c0,6.882,5.601,12.477,12.48,12.477c6.878,0,12.476-5.595,12.476-12.477
		c0-4.237-2.122-7.984-5.359-10.241h16.889c-3.237,2.257-5.361,6.004-5.361,10.241c0,6.882,5.597,12.477,12.479,12.477
		c6.881,0,12.479-5.595,12.479-12.477C69.243,40.721,64.599,35.52,58.576,34.642z M35.292,46.986c0,5.323-4.33,9.652-9.65,9.652
		c-5.324,0-9.654-4.329-9.654-9.652c0-5.324,4.33-9.653,9.654-9.653c0.542,0,1.072,0.047,1.59,0.133l-2.935,9.087
		c-0.239,0.741,0.168,1.535,0.911,1.778c0.143,0.045,0.288,0.067,0.434,0.067c0.595,0,1.149-0.382,1.342-0.979l2.937-9.082
		C33.102,39.917,35.292,43.197,35.292,46.986z M56.764,56.639c-5.323,0-9.654-4.329-9.654-9.652c0-3.214,1.581-6.062,4.002-7.818
		l4.924,9.413c0.253,0.482,0.746,0.759,1.252,0.759c0.223,0,0.446-0.053,0.654-0.161c0.692-0.362,0.96-1.214,0.598-1.905
		l-4.923-9.411c0.988-0.34,2.046-0.529,3.147-0.529c5.322,0,9.652,4.329,9.652,9.653C66.416,52.31,62.086,56.639,56.764,56.639z"/>
</g>
</svg>
