<?xml version="1.0" encoding="utf-8"?>
<!-- Generator: Adobe Illustrator 16.0.0, SVG Export Plug-In . SVG Version: 6.00 Build 0)  -->
<!DOCTYPE svg PUBLIC "-//W3C//DTD SVG 1.1//EN" "http://www.w3.org/Graphics/SVG/1.1/DTD/svg11.dtd">
<svg version="1.1" id="Layer_1" xmlns="http://www.w3.org/2000/svg" xmlns:xlink="http://www.w3.org/1999/xlink" x="0px" y="0px"
	 width="38px" height="38px" viewBox="-203.561 -70.282 38 38" enable-background="new -203.561 -70.282 38 38"
	 xml:space="preserve">
<g>
	<circle fill="none" stroke="#FFFFFF" stroke-width="2" stroke-miterlimit="10" cx="-184.561" cy="-51.282" r="18"/>
	<path fill="#FFFFFF" d="M-173.689-53.063l-10.003-9.883c-0.479-0.471-1.259-0.474-1.739,0.001l-10.001,9.882
		c-0.235,0.232-0.366,0.543-0.368,0.874c-0.001,0.331,0.126,0.642,0.358,0.876c0.231,0.235,0.542,0.366,0.873,0.368
		c0.002,0,0.005,0,0.007,0c0.327,0,0.636-0.126,0.87-0.357l0.515-0.508v10.743h0.5h4.992h1.125v-7.915h4v7.916h1.125h4.491h1
		v-10.743l0.516,0.509c0.472,0.465,1.288,0.457,1.749-0.011c0.232-0.235,0.359-0.546,0.358-0.877
		C-173.323-52.521-173.454-52.831-173.689-53.063z"/>
</g>
</svg>
