<?xml version="1.0" encoding="utf-8"?>
<!-- Generator: Adobe Illustrator 16.0.0, SVG Export Plug-In . SVG Version: 6.00 Build 0)  -->
<!DOCTYPE svg PUBLIC "-//W3C//DTD SVG 1.1//EN" "http://www.w3.org/Graphics/SVG/1.1/DTD/svg11.dtd">
<svg version="1.1" id="Layer_1" xmlns="http://www.w3.org/2000/svg" xmlns:xlink="http://www.w3.org/1999/xlink" x="0px" y="0px"
	 width="57.525px" height="57.525px" viewBox="38.872 424.169 57.525 57.525" enable-background="new 38.872 424.169 57.525 57.525"
	 xml:space="preserve">
<g>
	<g>
		
			<rect x="65.378" y="438.725" transform="matrix(0.7071 0.7071 -0.7071 0.7071 337.0908 84.3422)" fill="none" width="2.715" height="20.702"/>
		
			<rect x="68.197" y="441.543" transform="matrix(0.7071 0.7071 -0.7071 0.7071 339.9094 83.1741)" fill="none" width="2.715" height="20.702"/>
		<polygon fill="none" points="57.824,460.763 57.383,462.501 59.252,462.191 58.959,464.181 60.837,463.847 60.851,464.537 
			64.831,463.601 57.801,456.572 56.703,460.841 		"/>
		
			<rect x="71.021" y="444.355" transform="matrix(-0.7071 -0.7071 0.7071 -0.7071 -197.9675 827.4122)" fill="none" width="2.715" height="20.704"/>
		<path fill="#212666" d="M56.633,455.46l-2.96,12.07l12.346-2.742l16.438-16.439l-9.355-9.354L56.633,455.46z M64.644,463.46
			l-3.797,0.893l-0.013-0.656l-1.791,0.316l0.278-1.896l-1.782,0.297l0.421-1.658l-1.068,0.074l1.047-4.072L64.644,463.46z
			 M64.438,460.806l14.035-14.031l1.838,1.84l-14.03,14.033L64.438,460.806z M61.704,458.07l14.035-14.031l1.838,1.84L63.546,459.91
			L61.704,458.07z M58.974,455.339l14.035-14.031l1.838,1.84l-14.031,14.031L58.974,455.339z"/>
		<path fill="#212666" d="M86.664,442.125l-7.34-7.34c-0.538-0.539-1.479-0.539-2.017,0l-3.229,3.229l9.356,9.357l3.229-3.23
			c0.27-0.27,0.418-0.627,0.418-1.008S86.933,442.394,86.664,442.125z"/>
	</g>
	<circle fill="none" stroke="#212666" stroke-width="4" stroke-miterlimit="10" cx="67.635" cy="452.932" r="26.763"/>
</g>
</svg>
