<?xml version="1.0" encoding="utf-8"?>
<!-- Generator: Adobe Illustrator 16.0.0, SVG Export Plug-In . SVG Version: 6.00 Build 0)  -->
<!DOCTYPE svg PUBLIC "-//W3C//DTD SVG 1.1//EN" "http://www.w3.org/Graphics/SVG/1.1/DTD/svg11.dtd">
<svg version="1.1" id="Layer_1" xmlns="http://www.w3.org/2000/svg" xmlns:xlink="http://www.w3.org/1999/xlink" x="0px" y="0px"
	 width="38px" height="38px" viewBox="-67.28 -70.282 38 38" enable-background="new -67.28 -70.282 38 38" xml:space="preserve">
<g>
	<circle fill="none" stroke="#FFFFFF" stroke-width="2" stroke-miterlimit="10" cx="-48.28" cy="-51.282" r="18"/>
	<path fill="#FFFFFF" d="M-40.171-50.832c-0.002-1.345,1.119-2.514,2.766-3.107c-0.213-0.901-0.531-1.761-0.947-2.563
		c-1.58,0.736-3.188,0.717-4.137-0.231c-0.979-0.978-0.971-2.66-0.16-4.287c-0.785-0.459-1.629-0.829-2.521-1.088
		c-0.586,1.687-1.766,2.841-3.131,2.841c-1.365,0-2.545-1.155-3.131-2.841c-0.891,0.259-1.73,0.625-2.512,1.083
		c0.707,1.56,0.676,3.14-0.26,4.075c-0.916,0.916-2.451,0.966-3.979,0.305c-0.426,0.793-0.748,1.647-0.975,2.54
		c1.453,0.627,2.418,1.72,2.418,2.969c0,1.219-0.92,2.293-2.318,2.926c0.258,0.885,0.625,1.722,1.08,2.501
		c1.383-0.478,2.725-0.357,3.557,0.475s0.951,2.174,0.475,3.558c0.785,0.458,1.625,0.826,2.516,1.085
		c0.643-1.278,1.666-2.108,2.822-2.107c1.197-0.001,2.254,0.89,2.891,2.246c0.898-0.212,1.756-0.528,2.555-0.942
		c-0.504-1.406-0.389-2.777,0.457-3.622c0.895-0.895,2.381-0.967,3.873-0.354c0.482-0.762,0.877-1.583,1.166-2.455
		C-39.167-48.448-40.173-49.559-40.171-50.832z M-48.302-46.875c-2.473,0-4.477-2.004-4.477-4.477s2.004-4.477,4.477-4.477
		c2.473,0,4.477,2.004,4.477,4.477S-45.829-46.875-48.302-46.875z"/>
</g>
</svg>
