<?xml version="1.0" encoding="utf-8"?>
<!-- Generator: Adobe Illustrator 16.0.0, SVG Export Plug-In . SVG Version: 6.00 Build 0)  -->
<!DOCTYPE svg PUBLIC "-//W3C//DTD SVG 1.1//EN" "http://www.w3.org/Graphics/SVG/1.1/DTD/svg11.dtd">
<svg version="1.1" id="Layer_1" xmlns="http://www.w3.org/2000/svg" xmlns:xlink="http://www.w3.org/1999/xlink" x="0px" y="0px"
	 width="38px" height="38px" viewBox="69.129 -69.591 38 38" enable-background="new 69.129 -69.591 38 38" xml:space="preserve">
<g>
	<g>
		<circle fill="none" stroke="#FFFFFF" stroke-width="2" stroke-miterlimit="10" cx="88.129" cy="-50.591" r="18"/>
	</g>
	<g>
		<path fill="#FFFFFF" d="M94.905-63.132H81.345c-0.025,0-0.05,0.013-0.076,0.015l-0.037-0.015c-0.604,0-1.09,0.487-1.09,1.088
			v20.749c0,0.602,0.486,1.088,1.09,1.088l10.953,4.354c0.602,0,1.09-0.487,1.09-1.088v-5.882h1.632
			c0.532,0,0.964-0.432,0.964-0.964v-18.381C95.869-62.701,95.438-63.132,94.905-63.132z M91.272-38.367l-9.131-3.629v-0.827
			v-17.794l9.131,3.629v14.165V-38.367z"/>
		<circle fill="#FFFFFF" cx="88.665" cy="-48.887" r="1.199"/>
	</g>
</g>
</svg>
