<?xml version="1.0" encoding="utf-8"?>
<!-- Generator: Adobe Illustrator 16.0.0, SVG Export Plug-In . SVG Version: 6.00 Build 0)  -->
<!DOCTYPE svg PUBLIC "-//W3C//DTD SVG 1.1//EN" "http://www.w3.org/Graphics/SVG/1.1/DTD/svg11.dtd">
<svg version="1.1" id="Layer_1" xmlns="http://www.w3.org/2000/svg" xmlns:xlink="http://www.w3.org/1999/xlink" x="0px" y="0px"
	 width="360.811px" height="90.723px" viewBox="0 0 360.811 90.723" enable-background="new 0 0 360.811 90.723"
	 xml:space="preserve">
<g>
	<path fill="#FFFFFF" d="M38.576,33.508c0.564-0.606,1.271-1.093,2.123-1.466c0.854-0.374,1.828-0.644,2.928-0.816
		c1.098-0.169,2.236-0.255,3.417-0.255c2.048,0,4.091,0.187,6.126,0.56c2.036,0.372,3.802,0.823,5.3,1.35
		c0.775-1.147,1.554-2.359,2.335-3.632c0.781-1.273,1.489-2.531,2.125-3.771c-2.001-0.87-4.386-1.568-7.157-2.097
		c-2.771-0.527-5.646-0.792-8.626-0.792c-2.515,0-4.988,0.226-7.421,0.675c-2.433,0.452-4.647,1.181-6.642,2.189
		c-1.996,1.008-3.702,2.344-5.119,4.005c-1.419,1.661-2.341,3.703-2.764,6.124c-0.461,2.452-0.412,4.588,0.148,6.404
		c0.559,1.815,1.465,3.361,2.718,4.634c1.252,1.272,2.791,2.312,4.616,3.119c1.826,0.809,3.789,1.43,5.891,1.863
		c1.383,0.279,2.719,0.56,4.01,0.839c1.29,0.28,2.409,0.652,3.358,1.116c0.948,0.468,1.663,1.088,2.142,1.865
		c0.48,0.776,0.615,1.816,0.403,3.12c-0.187,1.149-0.6,2.119-1.241,2.91c-0.641,0.793-1.443,1.43-2.406,1.911
		c-0.961,0.482-2.051,0.832-3.266,1.048c-1.157,0.207-3.561,0.216-3.561,0.216C14.022,63.508,2.699,45.378,0.971,24.848
		c-3.697,21.07,3.332,37.324,18.312,44.484c0.913,0.54,1.962,1.036,3.184,1.482c1.319,0.481,2.757,0.9,4.313,1.256
		c1.057,0.243,2.172,0.433,3.314,0.595c2.355,0.389,7.383,0.546,7.361,0.49c2.512-0.027,5.014-0.268,7.499-0.734
		c2.644-0.496,5.058-1.319,7.247-2.469c2.188-1.148,4.047-2.654,5.576-4.517c1.528-1.863,2.543-4.16,3.05-6.893
		c0.444-2.546,0.419-4.727-0.079-6.543s-1.365-3.354-2.605-4.611c-1.24-1.257-2.781-2.29-4.621-3.097
		c-1.841-0.807-3.851-1.475-6.031-2.002c-1.403-0.342-2.752-0.652-4.041-0.931c-1.289-0.28-2.402-0.637-3.34-1.072
		c-0.94-0.434-1.655-1.001-2.146-1.699c-0.493-0.699-0.641-1.653-0.444-2.864C37.659,34.852,38.012,34.114,38.576,33.508z"/>
	<path fill="#FFFFFF" d="M116.33,29.596c-1.031-2.157-2.563-3.872-4.592-5.146c-2.028-1.273-4.672-1.909-7.933-1.909
		c-6.582,0-12.151,2.949-16.708,8.848h-0.514c0.115-1.086,0.19-2.033,0.229-2.84c0.038-0.807,0.042-1.552,0.013-2.237
		c-0.028-0.683-0.088-1.318-0.18-1.909c-0.091-0.588-0.191-1.21-0.304-1.862c-2.104,0.343-4.071,0.698-5.9,1.072
		c-1.829,0.371-3.785,0.837-5.862,1.397c0.129,1.118,0.189,2.228,0.183,3.33c-0.009,1.102-0.06,2.227-0.151,3.377
		c-0.095,1.148-0.236,2.358-0.428,3.631c-0.191,1.274-0.403,2.64-0.641,4.1l-8.313,51.275h12.714l2.951-18.21
		c1.244,0.186,2.484,0.341,3.721,0.465c1.237,0.124,2.523,0.187,3.859,0.187c3.662,0,7.102-0.575,10.315-1.722
		c3.212-1.148,6.089-2.856,8.63-5.123c2.54-2.266,4.682-5.084,6.424-8.454c1.74-3.369,2.975-7.289,3.699-11.758
		c0.514-3.167,0.697-6.172,0.553-9.013C117.949,34.253,117.362,31.755,116.33,29.596z M105.022,42.613
		c-0.141,2.206-0.423,4.627-0.851,7.266c-0.414,2.546-1.09,4.704-2.027,6.474c-0.939,1.769-2.065,3.213-3.381,4.33
		c-1.314,1.118-2.797,1.927-4.444,2.423c-1.649,0.498-3.389,0.745-5.22,0.745c-2.144,0-4.404-0.31-6.789-0.932l3.587-22.123
		c0.765-1.085,1.522-2.102,2.265-3.05c0.742-0.946,1.518-1.792,2.32-2.538c1.072-1.055,2.205-1.877,3.404-2.468
		c1.196-0.59,2.525-0.885,3.984-0.885c1.988,0,3.516,0.443,4.582,1.328c1.068,0.885,1.797,2.127,2.189,3.727
		C105.037,38.508,105.162,40.41,105.022,42.613z"/>
	<path fill="#FFFFFF" d="M167.791,29.736c-1.577-2.25-3.751-4.012-6.525-5.286c-2.773-1.273-6.195-1.909-10.263-1.909
		s-7.692,0.636-10.878,1.909c-3.188,1.274-5.934,3.036-8.238,5.286c-2.306,2.25-4.182,4.922-5.63,8.01
		c-1.448,3.091-2.466,6.451-3.055,10.083c-0.589,3.633-0.661,7.001-0.217,10.107c0.442,3.104,1.454,5.782,3.028,8.033
		c1.575,2.252,3.751,4.014,6.525,5.286c2.775,1.273,6.195,1.909,10.262,1.909c4.067,0,7.695-0.636,10.881-1.909
		c3.188-1.272,5.934-3.034,8.238-5.286c2.304-2.25,4.184-4.929,5.632-8.033c1.451-3.105,2.471-6.474,3.06-10.107
		c0.588-3.633,0.658-6.993,0.212-10.083C170.377,34.659,169.365,31.986,167.791,29.736z M157.851,47.83
		c-0.366,2.266-0.858,4.385-1.473,6.356c-0.614,1.973-1.443,3.688-2.487,5.148c-1.043,1.459-2.348,2.607-3.911,3.446
		c-1.565,0.838-3.464,1.257-5.698,1.257c-2.236,0-4.001-0.419-5.292-1.257c-1.294-0.839-2.226-1.987-2.794-3.446
		c-0.572-1.46-0.846-3.175-0.819-5.148c0.023-1.971,0.22-4.09,0.587-6.356c0.362-2.236,0.851-4.338,1.465-6.31
		c0.613-1.972,1.442-3.687,2.486-5.146c1.043-1.46,2.348-2.61,3.913-3.447c1.562-0.839,3.462-1.258,5.698-1.258
		c2.235,0,3.999,0.419,5.29,1.258c1.293,0.837,2.224,1.987,2.794,3.447c0.572,1.459,0.846,3.174,0.82,5.146
		C158.405,43.491,158.213,45.594,157.851,47.83z"/>
	<path fill="#FFFFFF" d="M212.872,22.541c-1.023,0-2.079,0.085-3.161,0.256c-1.084,0.171-2.178,0.466-3.287,0.886
		c-1.109,0.419-2.229,0.962-3.361,1.629c-1.132,0.668-2.247,1.513-3.344,2.539c-1.133,1.056-2.393,2.406-3.777,4.051h-0.604
		c0.087-1.117,0.154-2.11,0.201-2.981c0.048-0.868,0.068-1.667,0.064-2.398c-0.008-0.729-0.051-1.412-0.135-2.049
		c-0.082-0.635-0.181-1.28-0.292-1.932c-2.104,0.343-4.193,0.729-6.266,1.164s-4.161,0.917-6.265,1.443
		c0.117,1.181,0.171,2.393,0.156,3.633c-0.014,1.243-0.088,2.554-0.218,3.936c-0.132,1.381-0.308,2.856-0.53,4.424
		c-0.224,1.568-0.48,3.253-0.771,5.054l-4.836,29.852h12.76l4.927-30.412c1.284-1.615,2.425-2.958,3.422-4.028
		c0.997-1.072,1.935-1.933,2.817-2.585c0.881-0.652,1.74-1.111,2.574-1.374c0.834-0.263,1.732-0.396,2.695-0.396
		c1.025,0,2.17,0.118,3.436,0.349c1.268,0.235,2.757,0.521,4.473,0.862c0.381-0.837,0.77-1.738,1.158-2.7s0.755-1.941,1.104-2.935
		c0.348-0.994,0.678-1.979,0.99-2.958c0.314-0.978,0.588-1.902,0.822-2.77c-0.69-0.156-1.437-0.288-2.24-0.396
		C214.578,22.596,213.742,22.541,212.872,22.541z"/>
	<path fill="#FFFFFF" d="M243.996,12.528h-12.759l-1.795,11.084h-6.985l-1.508,9.314h6.986L224.247,55.7
		c-0.589,3.634-0.854,6.622-0.8,8.964c0.055,2.345,0.657,4.185,1.808,5.52c0.494,0.589,1.114,1.071,1.862,1.444
		c0.748,0.372,1.574,0.676,2.484,0.907c0.91,0.233,1.883,0.397,2.924,0.491c1.041,0.092,2.104,0.138,3.191,0.138
		c1.148,0,2.383-0.046,3.701-0.138c1.319-0.094,2.63-0.235,3.934-0.42c1.304-0.187,2.559-0.412,3.766-0.675
		c1.207-0.265,2.27-0.551,3.189-0.862c-0.096-0.558-0.193-1.202-0.291-1.932c-0.1-0.729-0.203-1.49-0.308-2.282
		c-0.104-0.791-0.214-1.561-0.325-2.306c-0.113-0.745-0.218-1.397-0.312-1.955c-1.866,0.403-3.477,0.715-4.831,0.931
		c-1.354,0.217-2.529,0.326-3.522,0.326c-1.022,0-1.843-0.117-2.457-0.348c-0.615-0.235-1.062-0.637-1.342-1.212
		c-0.279-0.574-0.409-1.358-0.387-2.352c0.021-0.993,0.154-2.25,0.4-3.771l3.763-23.24h16.299l1.507-9.314h-16.298L243.996,12.528z"
		/>
	<polygon fill="#FFFFFF" points="259.953,72.047 272.715,72.047 280.552,23.613 267.793,23.613 	"/>
	<path fill="#FFFFFF" d="M283.146,2.26c-0.586-0.699-1.318-1.252-2.2-1.655C280.064,0.203,279.096,0,278.039,0
		c-1.086,0-2.127,0.203-3.124,0.604c-0.995,0.403-1.909,0.956-2.734,1.655c-0.829,0.698-1.519,1.521-2.077,2.467
		c-0.555,0.948-0.919,1.949-1.09,3.004c-0.178,1.088-0.138,2.097,0.114,3.027c0.253,0.932,0.679,1.755,1.277,2.469
		c0.599,0.714,1.33,1.273,2.197,1.677c0.866,0.403,1.843,0.605,2.929,0.605c1.055,0,2.089-0.202,3.103-0.605
		c1.01-0.403,1.925-0.962,2.739-1.677c0.813-0.714,1.498-1.537,2.051-2.469c0.555-0.931,0.921-1.939,1.096-3.027
		c0.17-1.055,0.131-2.056-0.119-3.004C284.15,3.781,283.732,2.958,283.146,2.26z"/>
	<polygon fill="#FFFFFF" points="305.864,63.338 301.812,23.613 288.495,23.613 296.696,72.513 312.064,72.513 336.088,23.613 
		322.77,23.613 	"/>
	<path fill="#FFFFFF" d="M360.588,4.727c-0.25-0.945-0.669-1.769-1.254-2.467c-0.586-0.699-1.319-1.252-2.2-1.655
		C356.252,0.203,355.282,0,354.229,0c-1.087,0-2.129,0.203-3.126,0.604c-0.996,0.403-1.909,0.956-2.734,1.655
		c-0.827,0.698-1.52,1.521-2.075,2.467c-0.557,0.948-0.921,1.949-1.092,3.004c-0.176,1.088-0.138,2.097,0.115,3.027
		c0.253,0.932,0.678,1.755,1.278,2.469c0.598,0.714,1.33,1.273,2.195,1.677c0.867,0.403,1.843,0.605,2.929,0.605
		c1.057,0,2.09-0.202,3.103-0.605s1.926-0.962,2.74-1.677c0.813-0.714,1.498-1.537,2.052-2.469c0.553-0.931,0.921-1.939,1.095-3.027
		C360.878,6.675,360.838,5.674,360.588,4.727z"/>
	<polygon fill="#FFFFFF" points="336.149,72.047 348.909,72.047 356.743,23.613 343.982,23.613 	"/>
</g>
</svg>
